<svg width="25" height="29" viewBox="0 0 25 29" fill="none" xmlns="http://www.w3.org/2000/svg">
<path d="M24.4784 22.6442C24.0303 19.927 21.6166 17.9795 18.8669 18.1132C16.1172 18.2469 13.9059 20.4257 13.7289 23.1718C8.18246 22.9983 6.21323 21.7011 6.53481 19.0635C6.65405 18.077 7.25024 17.5495 8.34506 17.2929C9.00991 17.1376 9.74701 17.1159 10.4155 17.1773C10.4769 17.1845 10.5419 17.1882 10.6034 17.1954C11.0117 17.2929 11.4272 17.3761 11.8427 17.4411C13.0748 17.6434 14.3287 17.7446 15.521 17.6796C18.8742 17.4989 21.1578 16.0211 21.2734 12.8847C21.3854 9.84597 19.2969 7.69246 15.9293 6.25076C14.849 5.78826 13.7036 5.43054 12.5581 5.15955C12.0414 5.03669 11.6079 4.95359 11.2863 4.89939C11.0008 2.15691 8.70278 0.0648189 5.94584 0.0431392C3.18891 0.0214595 0.85473 2.07019 0.522308 4.80906C0.189887 7.54793 1.96762 10.0953 4.64868 10.7312C7.32973 11.3672 10.065 9.88933 10.9972 7.295C11.3369 7.35642 11.6729 7.42507 12.0089 7.50457C13.0279 7.74304 14.0468 8.06101 14.9863 8.4657C17.5409 9.55691 18.9356 10.9986 18.8706 12.798C18.8127 14.4095 17.6565 15.1539 15.3946 15.2767C14.4009 15.3309 13.3133 15.2442 12.2402 15.0672C11.9403 15.0166 11.6657 14.966 11.4236 14.9118C11.2827 14.8829 11.1851 14.8576 11.1417 14.8468L11.0297 14.8251C10.9502 14.8142 10.8165 14.7962 10.6431 14.7781C9.73979 14.695 8.76059 14.7239 7.80668 14.9443C5.81215 15.4104 4.41381 16.6498 4.15366 18.7672C3.58637 23.3271 6.9937 25.4409 14.1263 25.5927C15.1778 28.1364 17.9708 29.4914 20.6158 28.7362C23.2643 27.981 24.9264 25.3614 24.4784 22.6442ZM5.89164 8.47293C4.22954 8.47293 2.88178 7.12517 2.88178 5.46306C2.88178 3.80095 4.22954 2.4532 5.89164 2.4532C7.55375 2.4532 8.90151 3.80095 8.90151 5.46306C8.90151 7.12517 7.55375 8.47293 5.89164 8.47293ZM19.1343 26.5321C17.4722 26.5321 16.1245 25.1844 16.1245 23.5222C16.1245 21.8601 17.4722 20.5124 19.1343 20.5124C20.7964 20.5124 22.1442 21.8601 22.1442 23.5222C22.1442 25.1844 20.7964 26.5321 19.1343 26.5321Z" fill="white"/>
</svg>
