<svg fill="#333333" viewBox="0 0 256.00 256.00" id="Flat" xmlns="http://www.w3.org/2000/svg" stroke="#333333" stroke-width="10.24"><g id="SVGRepo_bgCarrier" stroke-width="0"></g><g id="SVGRepo_tracerCarrier" stroke-linecap="round" stroke-linejoin="round" stroke="#CCCCCC" stroke-width="2.048"></g><g id="SVGRepo_iconCarrier"> <path d="M128,28A100,100,0,1,0,228,128,100.11332,100.11332,0,0,0,128,28Zm0,192a92,92,0,1,1,92-92A92.10416,92.10416,0,0,1,128,220Zm8-92a8,8,0,1,1-8-8A8.00917,8.00917,0,0,1,136,128Zm48,0a8,8,0,1,1-8-8A8.00917,8.00917,0,0,1,184,128Zm-96,0a8,8,0,1,1-8-8A8.00917,8.00917,0,0,1,88,128Z"></path> </g></svg>